<?xml version="1.0" encoding="UTF-8" standalone="no"?>
<!-- Created with Inkscape (http://www.inkscape.org/) -->

<svg
   width="100"
   height="100"
   viewBox="5.4 4 15.458 15.458"
   version="1.1"
   id="svg5"
   xml:space="preserve"
   inkscape:version="1.2 (dc2aedaf03, 2022-05-15)"
   sodipodi:docname="logo.svg"
   xmlns:inkscape="http://www.inkscape.org/namespaces/inkscape"
   xmlns:sodipodi="http://sodipodi.sourceforge.net/DTD/sodipodi-0.dtd"
   xmlns="http://www.w3.org/2000/svg"
   xmlns:svg="http://www.w3.org/2000/svg"><sodipodi:namedview
     id="namedview7"
     pagecolor="#ffffff"
     bordercolor="#000000"
     borderopacity="0.25"
     inkscape:showpageshadow="2"
     inkscape:pageopacity="0.0"
     inkscape:pagecheckerboard="0"
     inkscape:deskcolor="#d1d1d1"
     inkscape:document-units="px"
     showgrid="false"
     inkscape:zoom="10.03"
     inkscape:cx="50"
     inkscape:cy="42.023928"
     inkscape:window-width="2400"
     inkscape:window-height="1261"
     inkscape:window-x="-9"
     inkscape:window-y="-9"
     inkscape:window-maximized="1"
     inkscape:current-layer="layer1" /><defs
     id="defs2" /><g
     inkscape:label="Layer 1"
     inkscape:groupmode="layer"
     id="layer1"><path
       id="path242"
       style="opacity:0.85;fill:none;stroke:#b33939;stroke-width:1.06935;stroke-linecap:round;stroke-linejoin:round;stroke-opacity:1"
       d="m 14.118645,4.8471334 c -1.665847,0.6340853 -2.511313,2.4745538 -1.888303,4.1105867 0.21119,0.5526659 0.575666,1.0341208 1.052184,1.3898809 l -0.877514,0.373311 C 12.482763,10.192425 12.424678,9.654723 12.236113,9.1573472 11.613259,7.5214701 9.7581173,6.7094073 8.0925087,7.3435426 6.426854,7.9775549 5.5813554,9.8176987 6.2040222,11.453646 c 0.2200326,0.576462 0.6066019,1.075002 1.1122837,1.434461 l -0.029688,-0.03648 8.5369911,5.293879 2.394899,-9.1505287 c 0.31411,-0.747729 0.329812,-1.5819116 0.04393,-2.333548 C 17.63978,5.0252554 15.784446,4.2129286 14.118646,4.8471363 Z"
       sodipodi:nodetypes="ccccccccccccc" /><path
       id="ellipse4342"
       style="opacity:1;fill:#84817a;stroke:#84817a;stroke-width:0.38168;stroke-linecap:round;stroke-linejoin:round"
       d="M 17.831083,9.6539959 A 0.52497387,0.8551026 14.066887 0 1 17.114015,10.355859 0.52497387,0.8551026 14.066887 0 1 16.81262,9.3988012 0.52497387,0.8551026 14.066887 0 1 17.529688,8.6969379 0.52497387,0.8551026 14.066887 0 1 17.831083,9.6539959 Z" /><path
       id="ellipse5798"
       style="opacity:1;fill:#84817a;stroke:#84817a;stroke-width:0.358303;stroke-linecap:round;stroke-linejoin:round"
       d="m 16.14946,10.395876 a 0.49282137,0.80273104 1.1552219 0 1 -0.508904,0.792632 0.49282137,0.80273104 1.1552219 0 1 -0.476538,-0.812503 0.49282137,0.80273104 1.1552219 0 1 0.508905,-0.7926324 0.49282137,0.80273104 1.1552219 0 1 0.476537,0.8125034 z" /><path
       id="ellipse5800"
       style="opacity:1;fill:#84817a;stroke:#84817a;stroke-width:0.384786;stroke-linecap:round;stroke-linejoin:round"
       d="m 19.330461,10.392827 a 0.52924573,0.86206084 29.933806 0 1 -0.888813,0.48297 0.52924573,0.86206084 29.933806 0 1 -0.02848,-1.0111566 0.52924573,0.86206084 29.933806 0 1 0.888813,-0.482971 0.52924573,0.86206084 29.933806 0 1 0.02848,1.0111576 z" /><path
       id="ellipse7254"
       style="opacity:1;fill:#84817a;stroke:#84817a;stroke-width:0.357528;stroke-linecap:round;stroke-linejoin:round"
       d="m 19.915944,12.194393 a 0.49175364,0.80099189 45.998596 0 1 -0.917782,0.2027 0.49175364,0.80099189 45.998596 0 1 0.234563,-0.910159 0.49175364,0.80099189 45.998596 0 1 0.917781,-0.2027 0.49175364,0.80099189 45.998596 0 1 -0.234562,0.910159 z" /><path
       id="path7982"
       style="opacity:1;fill:#84817a;fill-opacity:1;stroke:#84817a;stroke-width:1.05833;stroke-linecap:round;stroke-linejoin:round;stroke-opacity:1"
       d="m 17.588568,11.509769 a 0.46065846,0.47247022 23.399387 0 0 -0.610148,0.250621 0.46065846,0.47247022 23.399387 0 0 0.234788,0.61681 0.46065846,0.47247022 23.399387 0 0 0.610353,-0.251095 0.46065846,0.47247022 23.399387 0 0 -0.234993,-0.616336 z m 0.217631,1.252415 a 0.51971722,0.43703496 23.399387 0 0 -0.650732,0.194769 0.51971722,0.43703496 23.399387 0 0 0.303489,0.607687 0.51971722,0.43703496 23.399387 0 0 0.650258,-0.194976 0.51971722,0.43703496 23.399387 0 0 -0.303015,-0.60748 z m -1.298446,-0.510072 a 0.51971722,0.43703496 23.399387 0 0 -0.650053,0.194501 0.51971722,0.43703496 23.399387 0 0 0.303014,0.607481 0.51971722,0.43703496 23.399387 0 0 0.650733,-0.19477 0.51971722,0.43703496 23.399387 0 0 -0.303694,-0.607212 z" /></g></svg>
